<svg width="272" height="81" viewBox="0 0 272 81" fill="none" xmlns="http://www.w3.org/2000/svg">
<rect x="1" y="1" width="270" height="79" rx="39.5" stroke="white" stroke-width="2"/>
<path d="M120.138 37.8125C120.138 40.125 119.346 41.9062 117.763 43.1562C116.19 44.3958 113.935 45.0156 110.998 45.0156H108.31V54H105.654V31.1562H111.576C117.284 31.1562 120.138 33.375 120.138 37.8125ZM108.31 42.7344H110.701C113.055 42.7344 114.758 42.3542 115.81 41.5938C116.862 40.8333 117.388 39.6146 117.388 37.9375C117.388 36.4271 116.893 35.3021 115.904 34.5625C114.914 33.8229 113.373 33.4531 111.279 33.4531H108.31V42.7344ZM125.895 54V31.1562H128.551V51.5938H138.629V54H125.895ZM157.839 54L154.996 46.7344H145.839L143.027 54H140.339L149.371 31.0625H151.605L160.589 54H157.839ZM154.167 44.3438L151.511 37.2656C151.167 36.3698 150.813 35.2708 150.449 33.9688C150.22 34.9688 149.891 36.0677 149.464 37.2656L146.777 44.3438H154.167ZM170.503 42.5781L176.596 31.1562H179.471L171.846 45.1406V54H169.159V45.2656L161.549 31.1562H164.456L170.503 42.5781Z" fill="white"/>
<path d="M77.2171 52.2495L77.2171 30.3282L96.6457 41.2889L77.2171 52.2495Z" fill="white"/>
</svg>
